<svg xmlns="http://www.w3.org/2000/svg" viewBox="0 0 1400 520" width="100%" role="img" aria-label="VGGT-SMPL-X Human Prior Adapter architecture">
<defs><marker id="arrow" markerWidth="10" markerHeight="10" refX="8" refY="3" orient="auto"><path d="M0,0 L0,6 L9,3 z" fill="#8aa0b8"/></marker><filter id="shadow" x="-20%" y="-20%" width="140%" height="140%"><feDropShadow dx="0" dy="8" stdDeviation="8" flood-color="#172033" flood-opacity="0.10"/></filter></defs>
<rect width="1400" height="520" rx="28" fill="#fbfcff"/>
<text x="48" y="58" font-family="Inter,Arial,sans-serif" font-size="34" font-weight="800" fill="#111827">VGGT-SMPL-X Human Prior Adapter</text>
<text x="50" y="90" font-family="Inter,Arial,sans-serif" font-size="16" fill="#5b6472">Model-side human-structure prior route built on top of VGGT camera/depth/point-map predictions.</text>
<path d="M240,203.0 C270.0,203.0 270.0,203.0 300,203.0" fill="none" stroke="#8aa0b8" stroke-width="2" marker-end="url(#arrow)"/><path d="M280,343.0 C295.0,343.0 295.0,343.0 310,343.0" fill="none" stroke="#8aa0b8" stroke-width="2" marker-end="url(#arrow)"/><path d="M530,203.0 C590.0,203.0 590.0,271.0 650,271.0" fill="none" stroke="#8aa0b8" stroke-width="2" marker-end="url(#arrow)"/><path d="M570,343.0 C610.0,343.0 610.0,271.0 650,271.0" fill="none" stroke="#8aa0b8" stroke-width="2" marker-end="url(#arrow)"/><path d="M910,271.0 C950.0,271.0 950.0,271.0 990,271.0" fill="none" stroke="#8aa0b8" stroke-width="2" marker-end="url(#arrow)"/>
<rect x="50" y="160" width="190" height="86" rx="18" fill="#eff6ff" stroke="#93c5fd" stroke-width="1.5" filter="url(#shadow)"/>
<text x="72" y="194" font-family="Inter,Arial,sans-serif" font-size="18" font-weight="700" fill="#142033"><tspan x="72" dy="0">Multi-view RGB</tspan></text>
<text x="72" y="222" font-family="Inter,Arial,sans-serif" font-size="13" fill="#526071">VGGT original input</text>
<circle cx="62" cy="172" r="5" fill="#1d4ed8"/><rect x="300" y="160" width="230" height="86" rx="18" fill="#f5f3ff" stroke="#c4b5fd" stroke-width="1.5" filter="url(#shadow)"/>
<text x="322" y="194" font-family="Inter,Arial,sans-serif" font-size="18" font-weight="700" fill="#142033"><tspan x="322" dy="0">VGGT backbone</tspan></text>
<text x="322" y="222" font-family="Inter,Arial,sans-serif" font-size="13" fill="#526071">cameras / depth / point maps / tracks</text>
<circle cx="312" cy="172" r="5" fill="#6d28d9"/><rect x="50" y="300" width="230" height="86" rx="18" fill="#fffbeb" stroke="#fcd34d" stroke-width="1.5" filter="url(#shadow)"/>
<text x="72" y="334" font-family="Inter,Arial,sans-serif" font-size="18" font-weight="700" fill="#142033"><tspan x="72" dy="0">SMPL-X prior source</tspan></text>
<text x="72" y="362" font-family="Inter,Arial,sans-serif" font-size="13" fill="#526071">pose / shape / expression / scale</text>
<circle cx="62" cy="312" r="5" fill="#b45309"/><rect x="310" y="300" width="260" height="86" rx="18" fill="#fffbeb" stroke="#fcd34d" stroke-width="1.5" filter="url(#shadow)"/>
<text x="332" y="334" font-family="Inter,Arial,sans-serif" font-size="18" font-weight="700" fill="#142033"><tspan x="332" dy="0">View-aligned prior</tspan><tspan x="332" dy="22">rendering</tspan></text>
<text x="332" y="362" font-family="Inter,Arial,sans-serif" font-size="13" fill="#526071">prior maps / depth / points / masks</text>
<circle cx="322" cy="312" r="5" fill="#b45309"/><rect x="650" y="225" width="260" height="92" rx="18" fill="#ecfeff" stroke="#67e8f9" stroke-width="1.5" filter="url(#shadow)"/>
<text x="672" y="259" font-family="Inter,Arial,sans-serif" font-size="18" font-weight="700" fill="#142033"><tspan x="672" dy="0">HumanPriorAdapter</tspan></text>
<text x="672" y="293" font-family="Inter,Arial,sans-serif" font-size="13" fill="#526071">light route, not template replacement</text>
<circle cx="662" cy="237" r="5" fill="#0e7490"/><rect x="990" y="225" width="260" height="92" rx="18" fill="#ecfdf5" stroke="#86efac" stroke-width="1.5" filter="url(#shadow)"/>
<text x="1012" y="259" font-family="Inter,Arial,sans-serif" font-size="18" font-weight="700" fill="#142033"><tspan x="1012" dy="0">Geometry supervision</tspan></text>
<text x="1012" y="293" font-family="Inter,Arial,sans-serif" font-size="13" fill="#526071">depth / point / normal / ROI weights</text>
<circle cx="1002" cy="237" r="5" fill="#047857"/>
</svg>