<svg xmlns="http://www.w3.org/2000/svg" width="1400" height="900" viewBox="0 0 1400 900">
  <defs>
    <marker id="a" markerWidth="10" markerHeight="10" refX="8" refY="5" orient="auto"><path d="M0,0 L10,5 L0,10 Z" fill="#1d4ed8"/></marker>
    <linearGradient id="b" x1="0" x2="1" y1="0" y2="1"><stop stop-color="#eff6ff"/><stop offset="1" stop-color="#fff"/></linearGradient>
    <linearGradient id="t" x1="0" x2="1" y1="0" y2="1"><stop stop-color="#ecfeff"/><stop offset="1" stop-color="#fff"/></linearGradient>
    <style>
      text{font-family:Inter,Arial,sans-serif;fill:#0f172a}.title{font-size:46px;font-weight:800}.sub{font-size:22px;font-style:italic;fill:#475569}.h{font-size:20px;font-weight:800}.m{font-size:15px;font-weight:700}.s{font-size:12px;fill:#475569}.n{fill:#fff;font-size:24px;font-weight:800}.box{fill:#fff;stroke-width:1.4}.panel{stroke-width:1.6}.arrow{stroke:#1d4ed8;stroke-width:3;marker-end:url(#a)}
    </style>
  </defs>
  <rect width="1400" height="900" fill="#fff"/>
  <text x="700" y="62" text-anchor="middle" class="title">VGGT-SMPL-X Human Prior Adapter</text>
  <text x="700" y="98" text-anchor="middle" class="sub">Model-side SMPL-X prior injection for VGGT human-scene reconstruction</text>

  <g transform="translate(30 130)">
    <rect width="245" height="520" rx="18" class="panel" fill="url(#b)" stroke="#1d4ed8"/><circle cx="42" cy="38" r="22" fill="#1d4ed8"/><text x="42" y="46" text-anchor="middle" class="n">1</text><text x="86" y="42" class="h" fill="#1d4ed8">Input</text>
    <g transform="translate(18 82)"><rect width="210" height="72" rx="12" class="box" stroke="#1d4ed8"/><rect x="16" y="20" width="48" height="32" rx="6" fill="#1d4ed8"/><circle cx="40" cy="36" r="10" fill="#fff"/><text x="88" y="31" class="m">Multi-view</text><text x="88" y="51" class="m">RGB Images</text></g>
    <g transform="translate(18 172)"><rect width="210" height="72" rx="12" class="box" stroke="#1d4ed8"/><path d="M20 50 L45 20 L66 54 M45 20 v42 M23 48 h45" stroke="#1d4ed8" stroke-width="3" fill="none"/><text x="88" y="31" class="m">Camera Intrinsics</text><text x="88" y="51" class="m">/ Extrinsics</text></g>
    <g transform="translate(18 262)"><rect width="210" height="72" rx="12" class="box" stroke="#1d4ed8"/><circle cx="42" cy="20" r="9" fill="#1d4ed8"/><path d="M42 31 v28 M24 42 h36 M42 59 l-15 14 M42 59 l15 14" stroke="#1d4ed8" stroke-width="5" stroke-linecap="round"/><text x="88" y="31" class="m">Human Masks</text><text x="88" y="51" class="m">/ Silhouettes</text></g>
    <g transform="translate(18 352)"><rect width="210" height="110" rx="12" class="box" stroke="#1d4ed8"/><circle cx="42" cy="25" r="9" fill="none" stroke="#1d4ed8" stroke-width="3"/><path d="M42 36 v45 M18 51 h48 M42 81 l-17 22 M42 81 l17 22" stroke="#1d4ed8" stroke-width="3" fill="none"/><text x="88" y="32" class="m">SMPL-X Parameters</text><text x="88" y="54" class="s">betas / pose / expression</text><text x="88" y="72" class="s">translation / scale</text></g>
  </g>

  <g transform="translate(295 130)">
    <rect width="245" height="520" rx="18" class="panel" fill="url(#b)" stroke="#2563eb"/><circle cx="42" cy="38" r="22" fill="#2563eb"/><text x="42" y="46" text-anchor="middle" class="n">2</text><text x="86" y="32" class="h" fill="#2563eb">SMPL-X Prior</text><text x="86" y="55" class="h" fill="#2563eb">Construction</text>
    <g transform="translate(18 82)"><rect width="210" height="72" rx="12" class="box" stroke="#2563eb"/><circle cx="40" cy="19" r="8" fill="none" stroke="#2563eb" stroke-width="3"/><path d="M40 30 v34 M16 42 h48 M40 64 l-14 18 M40 64 l14 18" stroke="#2563eb" stroke-width="3" fill="none"/><text x="88" y="31" class="m">Build Posed</text><text x="88" y="51" class="m">SMPL-X Mesh</text></g>
    <g transform="translate(18 172)"><rect width="210" height="72" rx="12" class="box" stroke="#2563eb"/><rect x="18" y="18" width="18" height="36" fill="#111827"/><rect x="43" y="18" width="18" height="36" fill="#22c55e" opacity=".8"/><circle cx="70" cy="25" r="2" fill="#2563eb"/><circle cx="78" cy="45" r="2" fill="#2563eb"/><text x="88" y="25" class="m">Render Visibility</text><text x="88" y="45" class="m">Silhouette / Depth</text></g>
    <g transform="translate(18 262)"><rect width="210" height="72" rx="12" class="box" stroke="#2563eb"/><rect x="18" y="22" width="12" height="12" fill="#2563eb"/><rect x="36" y="22" width="12" height="12" fill="#06b6d4"/><rect x="54" y="22" width="12" height="12" fill="#22c55e"/><path d="M18 52 h48" stroke="#f97316" stroke-width="4"/><text x="88" y="25" class="m">Build prior_maps</text><text x="88" y="45" class="s">silhouette / keypoint</text><text x="88" y="61" class="s">body channels</text></g>
    <g transform="translate(18 352)"><rect width="210" height="110" rx="12" class="box" stroke="#2563eb"/><circle cx="25" cy="45" r="3" fill="#2563eb"/><circle cx="45" cy="30" r="3" fill="#06b6d4"/><circle cx="65" cy="62" r="3" fill="#22c55e"/><rect x="18" y="75" width="50" height="15" fill="#111827"/><text x="88" y="32" class="m">Build prior_depths</text><text x="88" y="52" class="m">prior_points</text><text x="88" y="72" class="m">prior_mask</text></g>
  </g>

  <g transform="translate(560 130)">
    <rect width="245" height="520" rx="18" class="panel" fill="url(#t)" stroke="#0891b2"/><circle cx="42" cy="38" r="22" fill="#0891b2"/><text x="42" y="46" text-anchor="middle" class="n">3</text><text x="86" y="42" class="h" fill="#0891b2">VGGT Student Model</text>
    <g transform="translate(18 82)"><rect width="210" height="72" rx="12" class="box" stroke="#0891b2"/><g fill="#1d4ed8"> <rect x="20" y="18" width="12" height="12"/><rect x="38" y="18" width="12" height="12"/><rect x="56" y="18" width="12" height="12"/><rect x="20" y="38" width="12" height="12"/><rect x="38" y="38" width="12" height="12"/><rect x="56" y="38" width="12" height="12"/></g><text x="88" y="31" class="m">VGGT RGB</text><text x="88" y="51" class="m">Patch Tokens</text></g>
    <g transform="translate(18 190)"><rect width="210" height="95" rx="12" fill="#f0fdfa" stroke="#0891b2" stroke-width="1.4"/><path d="M20 60 h45 l20 -32" stroke="#0891b2" stroke-width="5" fill="none"/><circle cx="62" cy="35" r="18" fill="none" stroke="#0891b2" stroke-width="3"/><text x="62" y="41" text-anchor="middle" class="m">σ</text><text x="95" y="31" class="m">HumanPriorAdapter</text><text x="95" y="54" class="s">light conv / projection</text><text x="95" y="72" class="s">learnable gate</text></g>
    <g transform="translate(18 315)"><rect width="210" height="72" rx="12" class="box" stroke="#0891b2"/><g fill="#14b8a6"> <rect x="20" y="18" width="12" height="12"/><rect x="38" y="18" width="12" height="12"/><rect x="56" y="18" width="12" height="12"/><rect x="20" y="38" width="12" height="12"/><rect x="38" y="38" width="12" height="12"/><rect x="56" y="38" width="12" height="12"/></g><text x="88" y="31" class="m">Prior-aware</text><text x="88" y="51" class="m">VGGT Tokens</text></g>
    <g transform="translate(18 415)"><rect width="210" height="85" rx="12" class="box" stroke="#0891b2"/><path d="M22 44 h52" stroke="#0f172a" stroke-width="3"/><circle cx="28" cy="44" r="5" fill="#2563eb"/><circle cx="48" cy="44" r="5" fill="#22c55e"/><circle cx="68" cy="44" r="5" fill="#f97316"/><text x="88" y="31" class="m">VGGT Heads</text><text x="88" y="51" class="s">camera / depth / point</text><text x="88" y="67" class="s">tracks</text></g>
  </g>

  <g transform="translate(825 130)">
    <rect width="245" height="520" rx="18" class="panel" fill="url(#b)" stroke="#7c3aed"/><circle cx="42" cy="38" r="22" fill="#7c3aed"/><text x="42" y="46" text-anchor="middle" class="n">4</text><text x="86" y="42" class="h" fill="#7c3aed">Training &amp; Controls</text>
    <g transform="translate(18 95)"><rect width="210" height="95" rx="12" class="box" stroke="#7c3aed"/><rect x="22" y="54" width="10" height="28" fill="#2563eb"/><rect x="42" y="36" width="10" height="46" fill="#2563eb"/><rect x="62" y="20" width="10" height="62" fill="#2563eb"/><text x="95" y="32" class="m">Original VGGT</text><text x="95" y="52" class="m">Geometry Losses</text><text x="95" y="72" class="s">reproj / depth / point</text></g>
    <g transform="translate(18 235)"><rect width="210" height="95" rx="12" class="box" stroke="#7c3aed"/><circle cx="32" cy="35" r="18" fill="#22c55e" opacity=".65"/><circle cx="62" cy="62" r="3" fill="#7c3aed"/><circle cx="50" cy="73" r="3" fill="#7c3aed"/><text x="95" y="32" class="m">Human Prior</text><text x="95" y="52" class="m">Depth / Point / Mask</text><text x="95" y="72" class="s">consistency losses</text></g>
    <g transform="translate(18 375)"><rect width="210" height="95" rx="12" class="box" stroke="#7c3aed"/><line x1="22" y1="30" x2="70" y2="30" stroke="#7c3aed" stroke-width="4"/><circle cx="40" cy="30" r="7" fill="#fff" stroke="#7c3aed" stroke-width="4"/><line x1="22" y1="55" x2="70" y2="55" stroke="#7c3aed" stroke-width="4"/><circle cx="60" cy="55" r="7" fill="#fff" stroke="#7c3aed" stroke-width="4"/><text x="95" y="32" class="m">Counterfactual</text><text x="95" y="52" class="m">Controls</text><text x="95" y="72" class="s">no / random / shuffled</text></g>
  </g>

  <g transform="translate(1090 130)">
    <rect width="245" height="520" rx="18" class="panel" fill="url(#b)" stroke="#1d4ed8"/><circle cx="42" cy="38" r="22" fill="#1d4ed8"/><text x="42" y="46" text-anchor="middle" class="n">5</text><text x="86" y="42" class="h" fill="#1d4ed8">Evidence Gate</text>
    <g transform="translate(18 82)"><rect width="210" height="72" rx="12" class="box" stroke="#1d4ed8"/><path d="M32 20 l28 16 v32 l-28 16 l-28 -16 v-32z" fill="none" stroke="#1d4ed8" stroke-width="3"/><text x="88" y="31" class="m">Vanilla VGGT</text><text x="88" y="51" class="m">Baseline</text></g>
    <g transform="translate(18 172)"><rect width="210" height="72" rx="12" class="box" stroke="#0891b2"/><path d="M32 20 l28 16 v32 l-28 16 l-28 -16 v-32z" fill="none" stroke="#0891b2" stroke-width="3"/><text x="88" y="31" class="m">Prior Adapter</text><text x="88" y="51" class="m">Output</text></g>
    <g transform="translate(18 262)"><rect width="210" height="95" rx="12" class="box" stroke="#0891b2"/><g opacity=".9"><circle cx="20" cy="35" r="3" fill="#2563eb"/><circle cx="38" cy="25" r="3" fill="#06b6d4"/><circle cx="55" cy="48" r="3" fill="#22c55e"/><circle cx="70" cy="34" r="3" fill="#f97316"/><circle cx="44" cy="58" r="3" fill="#8b5cf6"/><path d="M46 28 v34 M34 42 h24 M46 62 l-10 15 M46 62 l10 15" stroke="#111827" stroke-width="3"/></g><text x="88" y="30" class="m">Human-main</text><text x="88" y="50" class="m">Full-scene RGB</text><text x="88" y="70" class="m">Point Cloud</text></g>
    <g transform="translate(18 390)"><rect width="210" height="95" rx="12" class="box" stroke="#1d4ed8"/><path d="M24 15 h38 l14 14 v50 h-52z" fill="none" stroke="#1d4ed8" stroke-width="4"/><path d="M62 15 v16 h16" fill="none" stroke="#1d4ed8" stroke-width="4"/><text x="88" y="32" class="m">Manifest + Visual</text><text x="88" y="52" class="m">Report + Failure Log</text></g>
  </g>

  <line x1="283" y1="390" x2="285" y2="390" class="arrow"/><line x1="548" y1="390" x2="550" y2="390" class="arrow"/><line x1="813" y1="390" x2="815" y2="390" class="arrow"/><line x1="1078" y1="390" x2="1080" y2="390" class="arrow"/>

  <rect x="35" y="695" width="1330" height="150" rx="18" fill="#f8fbff" stroke="#60a5fa" stroke-width="1.6"/>
  <text x="700" y="730" text-anchor="middle" class="h" fill="#1d4ed8">Evaluation Gate</text>
  <g transform="translate(335 750)"><rect width="220" height="62" rx="14" fill="#fff" stroke="#059669"/><circle cx="34" cy="31" r="20" fill="#059669"/><path d="M25 31 l7 7 l14 -18" stroke="#fff" stroke-width="5" fill="none"/><text x="70" y="27" class="m" fill="#059669">Metric Pass</text><text x="70" y="47" class="s">quantitative thresholds</text></g>
  <line x1="565" y1="781" x2="610" y2="781" stroke="#64748b" stroke-width="3" marker-end="url(#a)"/>
  <g transform="translate(620 750)"><rect width="220" height="62" rx="14" fill="#fff" stroke="#2563eb"/><circle cx="34" cy="31" r="20" fill="#2563eb"/><circle cx="34" cy="31" r="8" fill="#fff"/><text x="70" y="27" class="m" fill="#2563eb">Visual Pass</text><text x="70" y="47" class="s">qualitative inspection</text></g>
  <line x1="850" y1="781" x2="895" y2="781" stroke="#64748b" stroke-width="3" marker-end="url(#a)"/>
  <g transform="translate(905 750)"><rect width="220" height="62" rx="14" fill="#fff" stroke="#7c3aed"/><circle cx="34" cy="31" r="20" fill="#7c3aed"/><text x="34" y="39" text-anchor="middle" fill="#fff" font-size="22" font-weight="800">A</text><text x="70" y="27" class="m" fill="#7c3aed">Advisor Pass</text><text x="70" y="47" class="s">full-scene gate</text></g>
  <text x="700" y="833" text-anchor="middle" class="s">Final promotion requires a human-main full-scene RGB point cloud; isolated scatter, projection overlays, SMPL-only renderings, and teacher-only fusion are auxiliary.</text>
</svg>
